<svg xmlns="http://www.w3.org/2000/svg" width="32" height="32" viewBox="0 0 32 32" fill="none">
  <defs>
    <linearGradient id="logo-gradient" x1="0%" y1="0%" x2="100%" y2="100%">
      <stop offset="0%" stop-color="#2563eb" />
      <stop offset="50%" stop-color="#06b6d4" />
      <stop offset="100%" stop-color="#1e3a8a" />
    </linearGradient>
  </defs>
  <rect width="32" height="32" rx="8" fill="url(#logo-gradient)" />
  <g transform="translate(6, 6) scale(0.833)">
    <path d="m7.5 4.27 9 5.15" stroke="white" stroke-width="2" stroke-linecap="round" stroke-linejoin="round"/>
    <path d="M21 8a2 2 0 0 0-1-1.73l-7-4a2 2 0 0 0-2 0l-7 4A2 2 0 0 0 3 8v8a2 2 0 0 0 1 1.73l7 4a2 2 0 0 0 2 0l7-4A2 2 0 0 0 21 16Z" stroke="white" stroke-width="2" stroke-linecap="round" stroke-linejoin="round"/>
    <path d="m3.3 7 8.7 5 8.7-5" stroke="white" stroke-width="2" stroke-linecap="round" stroke-linejoin="round"/>
    <path d="M12 22V12" stroke="white" stroke-width="2" stroke-linecap="round" stroke-linejoin="round"/>
  </g>
</svg>